<svg xmlns="http://www.w3.org/2000/svg" width="100" height="100" viewBox="0 0 100 100">
  <g id="play-btn" transform="translate(5 -1031.36)">
    <circle id="Elipse_14" data-name="Elipse 14" cx="50" cy="50" r="50" transform="translate(-5 1031.36)" fill="#1F315B"/>
    <path id="Caminho_272" data-name="Caminho 272" d="M46,1A45,45,0,1,0,91,46,45.049,45.049,0,0,0,46,1Zm0,6.429A38.587,38.587,0,1,1,7.416,46,38.52,38.52,0,0,1,46,7.429ZM36.421,20.286A3.214,3.214,0,0,0,33.143,23.5v45a3.214,3.214,0,0,0,5.323,2.424L64.193,48.411a3.214,3.214,0,0,0,0-4.834Q51.339,32.323,38.466,21.089A3.214,3.214,0,0,0,36.421,20.286Zm3.15,10.3,17.614,15.4L39.571,61.416Z" transform="translate(-1 1035.36)" fill="#fff"/>
  </g>
</svg>
